<?xml version="1.0" encoding="utf-8"?>
<!-- Generator: Adobe Illustrator 21.0.2, SVG Export Plug-In . SVG Version: 6.00 Build 0)  -->
<svg version="1.1" id="Calque_1" xmlns="http://www.w3.org/2000/svg" xmlns:xlink="http://www.w3.org/1999/xlink" x="0px" y="0px"
	 viewBox="0 0 88 79" style="enable-background:new 0 0 88 79;" xml:space="preserve">
<style type="text/css">
	.st0{fill:#9E9E9E;}
	.st1{fill:#CECECE;}
</style>
<g>
	<g>
		<path class="st0" d="M5.4,74.8L8,76l-0.4,0.9l-2.8-0.9L5.4,74.8z M9.5,77.3L7,72.8l1.5-0.9l1.7,3l1.5-0.9l-1-1.9l1.5-0.9l1,1.9
			l1.7-1l-1.7-3.1l1.5-0.8l2.6,4.6L9.5,77.3z"/>
		<path class="st0" d="M5.5,64.7c0.2,0.6,0.6,1,1.1,1.3c0.6,0.2,1.3,0.2,2.2-0.1c0.9-0.3,1.6-0.7,1.9-1.2s0.4-1.1,0.2-1.7
			c-0.1-0.3-0.3-0.6-0.5-0.8c-0.2-0.3-0.6-0.5-1-0.6l0.6-1.5c0.7,0.2,1.2,0.5,1.7,0.9s0.8,0.9,1,1.5c0.2,0.5,0.2,1.1,0.2,1.6
			s-0.2,1-0.5,1.4c-0.3,0.4-0.7,0.9-1.1,1.2c-0.5,0.4-1.1,0.7-1.8,0.9c-0.7,0.2-1.4,0.3-2,0.3c-0.6,0-1.2-0.1-1.6-0.3
			c-0.5-0.2-0.9-0.5-1.2-0.9c-0.3-0.4-0.6-0.9-0.8-1.4c-0.2-0.7-0.3-1.4-0.1-2c0.2-0.6,0.5-1.1,0.9-1.6L6,62.5
			c-0.3,0.4-0.5,0.8-0.5,1.2C5.4,64,5.4,64.4,5.5,64.7z"/>
		<path class="st0" d="M1.9,54.6c0-0.6,0-1.1,0.2-1.6c0.2-0.5,0.4-0.9,0.8-1.3s0.8-0.7,1.4-0.9c0.6-0.2,1.2-0.4,2-0.4
			c0.8-0.1,1.4,0,2,0.1c0.6,0.1,1.1,0.4,1.5,0.7c0.4,0.3,0.7,0.7,1,1.2c0.2,0.5,0.4,1,0.4,1.5c0,0.6,0,1.1-0.2,1.6
			c-0.2,0.5-0.4,0.9-0.8,1.3c-0.4,0.4-0.8,0.7-1.4,0.9s-1.2,0.4-2,0.4c-0.8,0.1-1.4,0-2-0.1c-0.6-0.1-1.1-0.4-1.5-0.7
			c-0.4-0.3-0.7-0.7-1-1.1C2.1,55.6,1.9,55.1,1.9,54.6z M3.6,54.5c0,0.6,0.3,1.1,0.8,1.5c0.5,0.3,1.2,0.5,2.2,0.4
			c1-0.1,1.7-0.3,2.1-0.7c0.5-0.4,0.7-0.9,0.6-1.6c0-0.6-0.3-1.1-0.8-1.5c-0.5-0.3-1.2-0.5-2.2-0.4c-1,0.1-1.7,0.3-2.1,0.7
			C3.8,53.3,3.6,53.8,3.6,54.5z"/>
		<path class="st0" d="M2,47l0.2-1.7l7.2,1l0.5-3.9l1.7,0.2l-0.8,5.7L2,47z"/>
		<path class="st0" d="M3.6,38l1.7-4.9L7,33.6l-1.1,3.3l1.7,0.6l0.7-2L9.9,36l-0.7,2l1.9,0.6l1.1-3.3l1.6,0.6l-1.7,5L3.6,38z"/>
		<path class="st0" d="M10.1,23.9l1.1-1.4l5.8,4.4l2.4-3.2l1.4,1l-3.4,4.6L10.1,23.9z"/>
		<path class="st0" d="M18.1,14.8l1.1-0.9l8.3,4.6L26,19.8l-1.5-0.9l-2.2,1.9l0.7,1.6l-1.5,1.3L18.1,14.8z M21.6,19.2l1.5-1.3
			l-2.7-1.6L21.6,19.2z"/>
		<path class="st0" d="M27.8,8c0.3-0.2,0.7-0.3,1-0.3c0.3,0,0.6,0,0.9,0.1s0.6,0.2,0.8,0.4c0.2,0.2,0.5,0.5,0.6,0.8
			c0.2,0.4,0.3,0.7,0.3,1c0,0.3-0.1,0.6-0.2,0.8c0.2,0,0.4,0,0.6,0c0.2,0,0.4,0.1,0.6,0.2c0.2,0.1,0.4,0.2,0.6,0.4
			c0.2,0.2,0.4,0.4,0.5,0.7c0.2,0.4,0.3,0.7,0.3,1.1c0,0.3,0,0.7-0.2,1c-0.1,0.3-0.3,0.6-0.6,0.9c-0.3,0.3-0.6,0.5-1,0.7l-3.4,1.8
			l-4.3-7.9L27.8,8z M29.6,11.1c0.1-0.1,0.2-0.1,0.2-0.2c0.1-0.1,0.1-0.2,0.1-0.3c0-0.1,0-0.2,0-0.4s0-0.2-0.1-0.3
			c-0.1-0.2-0.3-0.4-0.5-0.5s-0.4-0.1-0.7,0.1l-1.8,1l0.9,1.7L29.6,11.1z M29.5,15.3l2-1.1c0.3-0.2,0.5-0.4,0.7-0.6
			c0.1-0.3,0.1-0.5-0.1-0.8c-0.1-0.1-0.2-0.3-0.3-0.3s-0.3-0.1-0.4-0.1c-0.2,0-0.3,0-0.5,0s-0.3,0.1-0.5,0.2l-1.9,1L29.5,15.3z"/>
		<path class="st0" d="M34.2,5.1l5-1.5l0.5,1.7l-3.3,1l0.5,1.7l2-0.6L39.4,9l-2,0.6l0.6,1.9l3.4-1l0.5,1.7l-5.1,1.5L34.2,5.1z"/>
		<path class="st0" d="M42.8,2.8l1.8-0.2l0.8,7.2l3.9-0.4l0.2,1.7l-5.7,0.6L42.8,2.8z"/>
		<path class="st0" d="M51.9,2.2l1.8,0.1l-0.6,7.2l3.9,0.3l-0.1,1.7l-5.7-0.5L51.9,2.2z"/>
		<path class="st0" d="M60.7,3.3l1.7,0.4l-2,8.8l-1.7-0.4L60.7,3.3z"/>
		<path class="st0" d="M69.2,5.8c0.4,0.1,0.7,0.3,0.9,0.5c0.3,0.2,0.5,0.4,0.7,0.6c0.2,0.2,0.4,0.4,0.5,0.7s0.2,0.5,0.3,0.7
			l-1.6,0.6c-0.1-0.3-0.3-0.6-0.5-0.9c-0.2-0.3-0.5-0.5-1-0.6c-0.3-0.1-0.7-0.2-0.9-0.1c-0.3,0-0.5,0.2-0.5,0.3
			c-0.1,0.2-0.1,0.4,0,0.5c0.1,0.2,0.2,0.3,0.4,0.5c0.2,0.2,0.3,0.3,0.5,0.5c0.2,0.2,0.4,0.3,0.6,0.5s0.4,0.3,0.6,0.5
			c0.2,0.2,0.4,0.4,0.5,0.5c0.3,0.4,0.5,0.8,0.6,1.1c0,0.4,0,0.8-0.2,1.3c-0.2,0.5-0.5,0.9-0.8,1.1c-0.3,0.3-0.7,0.4-1.1,0.5
			c-0.4,0.1-0.8,0.1-1.2,0s-0.8-0.2-1.2-0.3c-0.9-0.4-1.6-0.8-2-1.2c-0.5-0.5-0.7-1-0.9-1.5c0.3-0.1,0.6-0.2,0.8-0.3
			c0.3-0.1,0.5-0.2,0.8-0.3c0.1,0.4,0.4,0.7,0.7,1c0.3,0.3,0.7,0.6,1.2,0.8c0.5,0.2,0.9,0.3,1.3,0.2c0.4,0,0.6-0.2,0.7-0.5
			c0.1-0.2,0.1-0.4,0-0.6c-0.1-0.2-0.2-0.4-0.3-0.5c-0.1-0.2-0.3-0.3-0.5-0.5c-0.2-0.2-0.4-0.3-0.6-0.5c-0.2-0.2-0.4-0.3-0.6-0.5
			c-0.2-0.2-0.4-0.3-0.5-0.5c-0.3-0.4-0.5-0.8-0.6-1.2c-0.1-0.4,0-0.8,0.2-1.3c0.1-0.3,0.3-0.6,0.5-0.8c0.2-0.2,0.5-0.4,0.8-0.5
			c0.3-0.1,0.7-0.1,1.1-0.1C68.3,5.5,68.7,5.6,69.2,5.8z"/>
		<path class="st0" d="M75.8,9.1l4.3,2.9l-1,1.5l-2.8-1.9l-1,1.5l1.8,1.2l-1,1.5l-1.8-1.2l-1.1,1.6l2.9,2l-1,1.4l-4.4-3L75.8,9.1z
			 M80.6,9.5l-2.9,0.2l0-0.9l2.9-0.4L80.6,9.5z"/>
		<path class="st0" d="M83.4,14.8l3.7,3.7l-1.3,1.2l-2.4-2.4l-1.2,1.2l1.5,1.5l-1.3,1.2l-1.5-1.5l-1.4,1.4l2.5,2.5l-1.2,1.2L77,21.1
			L83.4,14.8z"/>
	</g>
</g>
<g>
	<path class="st0" d="M47.4,25.8c0.2,0.1,0.3,0.2,0.5,0.3C55,30.4,62,34.7,69.1,38.9c0.1,0.1,0.2,0.1,0.3,0.2
		c-0.8,0.5-1.6,1-2.4,1.4c-6.4,3.8-12.8,7.7-19.2,11.5c-0.3,0.2-0.6,0.2-0.9,0c-5.2-3.1-10.4-6.2-15.6-9.3c-0.1-0.1-0.3-0.2-0.5-0.3
		c0,2.6,0,5.2,0,7.8c-0.9-0.2-1.8-0.3-2.7,0c0-0.2,0-0.4,0-0.5c0-2.9,0-5.7,0-8.6c0-0.3-0.1-0.5-0.4-0.6c-0.7-0.4-1.5-0.9-2.2-1.3
		c-0.1-0.1-0.2-0.1-0.3-0.1c0,0,0-0.1,0-0.1c0.1,0,0.2-0.1,0.3-0.1c7.1-4.3,14.3-8.5,21.4-12.8C47.1,26,47.2,25.9,47.4,25.8
		C47.3,25.8,47.3,25.8,47.4,25.8z"/>
	<path class="st0" d="M25.2,57.2c0-0.1,0.1-0.2,0.1-0.3c0.2-0.8,0.8-1.3,1.6-1.6c0.1,0,0.2-0.1,0.4-0.1c-0.4-1.2-0.2-2.2,0.9-2.9
		c0.8-0.5,2-0.5,2.8,0.1c0.9,0.6,1.1,1.5,0.7,2.8c0.9,0.2,1.6,0.7,1.9,1.7c0.1,0.5,0.1,1.1-0.1,1.6c-0.6,1.3-1.9,1.6-3.7,0.8
		c0.2,0.7,0.7,1.3,1.2,1.9c-1,0-1.9,0-2.9,0c0.5-0.5,1-1.1,1.2-1.7c-0.5,0.1-1.1,0.3-1.6,0.3c-1.1,0-2-0.7-2.2-1.7
		c0-0.1-0.1-0.1-0.1-0.2C25.2,57.6,25.2,57.4,25.2,57.2z"/>
	<path class="st0" d="M61,48.6c0,0.1,0,0.2,0,0.3c0,1.3,0,2.5,0,3.8c0,0.3-0.1,0.4-0.3,0.5c-4.4,2.6-8.8,5.2-13.1,7.9
		c-0.2,0.1-0.4,0.1-0.6,0c-4.4-2.6-8.7-5.2-13.1-7.8c-0.3-0.2-0.3-0.3-0.3-0.6c0-1.2,0-2.4,0-3.6c0-0.1,0-0.2,0-0.4
		c0.2,0.1,0.3,0.2,0.4,0.2c4.3,2.6,8.6,5.1,12.9,7.7c0.3,0.2,0.5,0.2,0.7,0c4.3-2.6,8.6-5.2,12.9-7.7C60.8,48.8,60.9,48.7,61,48.6z"
		/>
</g>
<g>
	<g>
		<path class="st1" d="M5,74.3l2.7,1.2l-0.4,0.9l-2.8-0.9L5,74.3z M9.2,76.8l-2.5-4.5l1.5-0.9l1.7,3l1.5-0.9l-1-1.9l1.5-0.9l1,1.9
			l1.7-1l-1.7-3.1l1.5-0.8l2.6,4.6L9.2,76.8z"/>
		<path class="st1" d="M5.2,64.2c0.2,0.6,0.6,1,1.1,1.3c0.6,0.2,1.3,0.2,2.2-0.1c0.9-0.3,1.6-0.7,1.9-1.2s0.4-1.1,0.2-1.7
			c-0.1-0.3-0.3-0.6-0.5-0.8c-0.2-0.3-0.6-0.5-1-0.6l0.6-1.5c0.7,0.2,1.2,0.5,1.7,0.9s0.8,0.9,1,1.5c0.2,0.5,0.2,1.1,0.2,1.6
			s-0.2,1-0.5,1.4c-0.3,0.4-0.7,0.9-1.1,1.2c-0.5,0.4-1.1,0.7-1.8,0.9c-0.7,0.2-1.4,0.3-2,0.3c-0.6,0-1.2-0.1-1.6-0.3
			c-0.5-0.2-0.9-0.5-1.2-0.9c-0.3-0.4-0.6-0.9-0.8-1.4c-0.2-0.7-0.3-1.4-0.1-2c0.2-0.6,0.5-1.1,0.9-1.6L5.7,62
			c-0.3,0.4-0.5,0.8-0.5,1.2C5.1,63.5,5.1,63.9,5.2,64.2z"/>
		<path class="st1" d="M1.5,54.1c0-0.6,0-1.1,0.2-1.6c0.2-0.5,0.4-0.9,0.8-1.3s0.8-0.7,1.4-0.9c0.6-0.2,1.2-0.4,2-0.4
			c0.8-0.1,1.4,0,2,0.1c0.6,0.1,1.1,0.4,1.5,0.7c0.4,0.3,0.7,0.7,1,1.2c0.2,0.5,0.4,1,0.4,1.5c0,0.6,0,1.1-0.2,1.6
			c-0.2,0.5-0.4,0.9-0.8,1.3c-0.4,0.4-0.8,0.7-1.4,0.9s-1.2,0.4-2,0.4c-0.8,0.1-1.4,0-2-0.1c-0.6-0.1-1.1-0.4-1.5-0.7
			c-0.4-0.3-0.7-0.7-1-1.1C1.7,55.1,1.6,54.6,1.5,54.1z M3.3,54c0,0.6,0.3,1.1,0.8,1.5c0.5,0.3,1.2,0.5,2.2,0.4
			c1-0.1,1.7-0.3,2.1-0.7c0.5-0.4,0.7-0.9,0.6-1.6c0-0.6-0.3-1.1-0.8-1.5c-0.5-0.3-1.2-0.5-2.2-0.4c-1,0.1-1.7,0.3-2.1,0.7
			C3.5,52.8,3.3,53.3,3.3,54z"/>
		<path class="st1" d="M1.7,46.5l0.2-1.7l7.2,1l0.5-3.9l1.7,0.2l-0.8,5.7L1.7,46.5z"/>
		<path class="st1" d="M3.3,37.5l1.7-4.9l1.7,0.6l-1.1,3.3l1.7,0.6l0.7-2l1.7,0.6l-0.7,2l1.9,0.6l1.1-3.3l1.6,0.6l-1.7,5L3.3,37.5z"
			/>
		<path class="st1" d="M9.8,23.4l1.1-1.4l5.8,4.4l2.4-3.2l1.4,1l-3.4,4.6L9.8,23.4z"/>
		<path class="st1" d="M17.7,14.3l1.1-0.9l8.3,4.6l-1.5,1.3l-1.5-0.9L22,20.3l0.7,1.6l-1.5,1.3L17.7,14.3z M21.3,18.7l1.5-1.3
			L20,15.9L21.3,18.7z"/>
		<path class="st1" d="M27.5,7.5c0.3-0.2,0.7-0.3,1-0.3c0.3,0,0.6,0,0.9,0.1s0.6,0.2,0.8,0.4c0.2,0.2,0.5,0.5,0.6,0.8
			c0.2,0.4,0.3,0.7,0.3,1c0,0.3-0.1,0.6-0.2,0.8c0.2,0,0.4,0,0.6,0c0.2,0,0.4,0.1,0.6,0.2c0.2,0.1,0.4,0.2,0.6,0.4
			c0.2,0.2,0.4,0.4,0.5,0.7c0.2,0.4,0.3,0.7,0.3,1.1c0,0.3,0,0.7-0.2,1c-0.1,0.3-0.3,0.6-0.6,0.9c-0.3,0.3-0.6,0.5-1,0.7l-3.4,1.8
			l-4.3-7.9L27.5,7.5z M29.3,10.6c0.1-0.1,0.2-0.1,0.2-0.2c0.1-0.1,0.1-0.2,0.1-0.3c0-0.1,0-0.2,0-0.4s0-0.2-0.1-0.3
			C29.4,9.1,29.2,9,29,8.9S28.6,8.8,28.4,9l-1.8,1l0.9,1.7L29.3,10.6z M29.2,14.8l2-1.1c0.3-0.2,0.5-0.4,0.7-0.6
			c0.1-0.3,0.1-0.5-0.1-0.8c-0.1-0.1-0.2-0.3-0.3-0.3s-0.3-0.1-0.4-0.1c-0.2,0-0.3,0-0.5,0s-0.3,0.1-0.5,0.2l-1.9,1L29.2,14.8z"/>
		<path class="st1" d="M33.8,4.6l5-1.5l0.5,1.7l-3.3,1l0.5,1.7l2-0.6l0.5,1.7l-2,0.6l0.6,1.9l3.4-1l0.5,1.7l-5.1,1.5L33.8,4.6z"/>
		<path class="st1" d="M42.5,2.3l1.8-0.2L45,9.3L49,8.9l0.2,1.7l-5.7,0.6L42.5,2.3z"/>
		<path class="st1" d="M51.6,1.7l1.8,0.1l-0.6,7.2l3.9,0.3l-0.1,1.7l-5.7-0.5L51.6,1.7z"/>
		<path class="st1" d="M60.4,2.8l1.7,0.4l-2,8.8l-1.7-0.4L60.4,2.8z"/>
		<path class="st1" d="M68.8,5.3c0.4,0.1,0.7,0.3,0.9,0.5C70,6,70.3,6.2,70.5,6.4c0.2,0.2,0.4,0.4,0.5,0.7s0.2,0.5,0.3,0.7l-1.6,0.6
			c-0.1-0.3-0.3-0.6-0.5-0.9c-0.2-0.3-0.5-0.5-1-0.6c-0.3-0.1-0.7-0.2-0.9-0.1c-0.3,0-0.5,0.2-0.5,0.3c-0.1,0.2-0.1,0.4,0,0.5
			C66.7,7.7,66.8,7.9,67,8c0.2,0.2,0.3,0.3,0.5,0.5C67.8,8.7,68,8.8,68.2,9s0.4,0.3,0.6,0.5c0.2,0.2,0.4,0.4,0.5,0.5
			c0.3,0.4,0.5,0.8,0.6,1.1c0,0.4,0,0.8-0.2,1.3c-0.2,0.5-0.5,0.9-0.8,1.1c-0.3,0.3-0.7,0.4-1.1,0.5c-0.4,0.1-0.8,0.1-1.2,0
			s-0.8-0.2-1.2-0.3c-0.9-0.4-1.6-0.8-2-1.2c-0.5-0.5-0.7-1-0.9-1.5c0.3-0.1,0.6-0.2,0.8-0.3c0.3-0.1,0.5-0.2,0.8-0.3
			c0.1,0.4,0.4,0.7,0.7,1c0.3,0.3,0.7,0.6,1.2,0.8c0.5,0.2,0.9,0.3,1.3,0.2c0.4,0,0.6-0.2,0.7-0.5c0.1-0.2,0.1-0.4,0-0.6
			c-0.1-0.2-0.2-0.4-0.3-0.5c-0.1-0.2-0.3-0.3-0.5-0.5c-0.2-0.2-0.4-0.3-0.6-0.5c-0.2-0.2-0.4-0.3-0.6-0.5c-0.2-0.2-0.4-0.3-0.5-0.5
			c-0.3-0.4-0.5-0.8-0.6-1.2c-0.1-0.4,0-0.8,0.2-1.3c0.1-0.3,0.3-0.6,0.5-0.8c0.2-0.2,0.5-0.4,0.8-0.5C66.8,5,67.1,4.9,67.5,5
			C67.9,5,68.4,5.1,68.8,5.3z"/>
		<path class="st1" d="M75.4,8.6l4.3,2.9l-1,1.5L75.9,11l-1,1.5l1.8,1.2l-1,1.5L73.9,14l-1.1,1.6l2.9,2l-1,1.4l-4.4-3L75.4,8.6z
			 M80.2,9l-2.9,0.2l0-0.9l2.9-0.4L80.2,9z"/>
		<path class="st1" d="M83.1,14.3l3.7,3.7l-1.3,1.2l-2.4-2.4L81.8,18l1.5,1.5l-1.3,1.2l-1.5-1.5l-1.4,1.4l2.5,2.5l-1.2,1.2l-3.7-3.8
			L83.1,14.3z"/>
	</g>
</g>
<g>
	<path class="st1" d="M47,25.3c0.2,0.1,0.3,0.2,0.5,0.3c7.1,4.2,14.2,8.5,21.3,12.7c0.1,0.1,0.2,0.1,0.3,0.2c-0.8,0.5-1.6,1-2.4,1.4
		c-6.4,3.8-12.8,7.7-19.2,11.5c-0.3,0.2-0.6,0.2-0.9,0c-5.2-3.1-10.4-6.2-15.6-9.3c-0.1-0.1-0.3-0.2-0.5-0.3c0,2.6,0,5.2,0,7.8
		c-0.9-0.2-1.8-0.3-2.7,0c0-0.2,0-0.4,0-0.5c0-2.9,0-5.7,0-8.6c0-0.3-0.1-0.5-0.4-0.6c-0.7-0.4-1.5-0.9-2.2-1.3
		c-0.1-0.1-0.2-0.1-0.3-0.1c0,0,0-0.1,0-0.1c0.1,0,0.2-0.1,0.3-0.1c7.1-4.3,14.3-8.5,21.4-12.8C46.7,25.5,46.8,25.4,47,25.3
		C47,25.3,47,25.3,47,25.3z"/>
	<path class="st1" d="M24.9,56.7c0-0.1,0.1-0.2,0.1-0.3c0.2-0.8,0.8-1.3,1.6-1.6c0.1,0,0.2-0.1,0.4-0.1c-0.4-1.2-0.2-2.2,0.9-2.9
		c0.8-0.5,2-0.5,2.8,0.1c0.9,0.6,1.1,1.5,0.7,2.8c0.9,0.2,1.6,0.7,1.9,1.7c0.1,0.5,0.1,1.1-0.1,1.6c-0.6,1.3-1.9,1.6-3.7,0.8
		c0.2,0.7,0.7,1.3,1.2,1.9c-1,0-1.9,0-2.9,0c0.5-0.5,1-1.1,1.2-1.7c-0.5,0.1-1.1,0.3-1.6,0.3c-1.1,0-2-0.7-2.2-1.7
		c0-0.1-0.1-0.1-0.1-0.2C24.9,57.1,24.9,56.9,24.9,56.7z"/>
	<path class="st1" d="M60.7,48.1c0,0.1,0,0.2,0,0.3c0,1.3,0,2.5,0,3.8c0,0.3-0.1,0.4-0.3,0.5c-4.4,2.6-8.8,5.2-13.1,7.9
		c-0.2,0.1-0.4,0.1-0.6,0c-4.4-2.6-8.7-5.2-13.1-7.8c-0.3-0.2-0.3-0.3-0.3-0.6c0-1.2,0-2.4,0-3.6c0-0.1,0-0.2,0-0.4
		c0.2,0.1,0.3,0.2,0.4,0.2c4.3,2.6,8.6,5.1,12.9,7.7c0.3,0.2,0.5,0.2,0.7,0c4.3-2.6,8.6-5.2,12.9-7.7C60.4,48.3,60.5,48.2,60.7,48.1
		z"/>
</g>
</svg>
